<?xml version="1.0" encoding="UTF-8" standalone="no"?>
<svg
   xmlns:dc="http://purl.org/dc/elements/1.1/"
   xmlns:cc="http://creativecommons.org/ns#"
   xmlns:rdf="http://www.w3.org/1999/02/22-rdf-syntax-ns#"
   xmlns:svg="http://www.w3.org/2000/svg"
   xmlns="http://www.w3.org/2000/svg"
   version="1.1"
   width="128"
   height="128"
   id="svg2">
  <defs
     id="defs4" />
  <metadata
     id="metadata7">
    <rdf:RDF>
      <cc:Work
         rdf:about="">
        <dc:format>image/svg+xml</dc:format>
        <dc:type
           rdf:resource="http://purl.org/dc/dcmitype/StillImage" />
        <dc:title></dc:title>
      </cc:Work>
    </rdf:RDF>
  </metadata>
  <g
     transform="translate(0,-924.36218)"
     id="layer1">
    <g
       transform="matrix(0.85410169,0,0,0.85410169,9.3498693,144.92935)"
       id="g3019">
      <path
         d="m 16,976.36218 c -8.836556,0 -16,7.16344 -16,16.00002 0,8.8366 7.163444,16 16,16 8.836556,0 16,-7.1634 16,-16 0,-8.83658 -7.163444,-16.00002 -16,-16.00002 z"
         id="path2987"
         style="fill:#ff8800;fill-opacity:1;stroke:none" />
      <path
         d="m 48,1008.3622 16,0 c 0,-35.34625 -28.653754,-64.00002 -64,-64.00002 l 0,16 c 26.509668,0 48,21.49033 48,48.00002 z"
         id="path2989"
         style="fill:#ff8800;fill-opacity:1;stroke:none" />
      <path
         d="m 80,1008.3622 16,0 c 0,-53.01938 -42.980626,-96.00002 -96,-96.00002 l 0,16 c 44.18278,0 80,35.81722 80,80.00002 z"
         id="path2991"
         style="fill:#ff8800;fill-opacity:1;stroke:none" />
    </g>
  </g>
</svg>
